<mxfile host="app.diagrams.net" agent="Mozilla/5.0 (Windows NT 10.0; Win64; x64) AppleWebKit/537.36 (KHTML, like Gecko) Chrome/138.0.0.0 Safari/537.36 Edg/138.0.0.0" version="28.0.6">
  <diagram name="第 1 页" id="EzBAGBKARLpEMuasmlha">
    <mxGraphModel dx="1325" dy="721" grid="1" gridSize="10" guides="1" tooltips="1" connect="1" arrows="1" fold="1" page="1" pageScale="1" pageWidth="827" pageHeight="1169" math="0" shadow="0">
      <root>
        <mxCell id="0" />
        <mxCell id="1" parent="0" />
        <mxCell id="CBHWCpmul9eefSs7WU4--3" value="" style="edgeStyle=orthogonalEdgeStyle;rounded=0;orthogonalLoop=1;jettySize=auto;html=1;" parent="1" source="CBHWCpmul9eefSs7WU4--1" target="CBHWCpmul9eefSs7WU4--2" edge="1">
          <mxGeometry relative="1" as="geometry" />
        </mxCell>
        <mxCell id="CBHWCpmul9eefSs7WU4--1" value="A0提工单&lt;div&gt;工单状态：处理中&lt;/div&gt;" style="rounded=1;whiteSpace=wrap;html=1;" parent="1" vertex="1">
          <mxGeometry x="408" y="130" width="120" height="60" as="geometry" />
        </mxCell>
        <mxCell id="CBHWCpmul9eefSs7WU4--5" value="" style="edgeStyle=orthogonalEdgeStyle;rounded=0;orthogonalLoop=1;jettySize=auto;html=1;" parent="1" source="CBHWCpmul9eefSs7WU4--2" target="CBHWCpmul9eefSs7WU4--4" edge="1">
          <mxGeometry relative="1" as="geometry" />
        </mxCell>
        <mxCell id="CBHWCpmul9eefSs7WU4--2" value="指派给A1&lt;div&gt;工单状态：处理中&lt;/div&gt;" style="rounded=1;whiteSpace=wrap;html=1;" parent="1" vertex="1">
          <mxGeometry x="408" y="270" width="120" height="60" as="geometry" />
        </mxCell>
        <mxCell id="CBHWCpmul9eefSs7WU4--7" value="" style="edgeStyle=orthogonalEdgeStyle;rounded=0;orthogonalLoop=1;jettySize=auto;html=1;" parent="1" source="CBHWCpmul9eefSs7WU4--4" target="CBHWCpmul9eefSs7WU4--6" edge="1">
          <mxGeometry relative="1" as="geometry" />
        </mxCell>
        <mxCell id="CBHWCpmul9eefSs7WU4--4" value="A1解决&lt;div&gt;工单状态：已解决&lt;/div&gt;" style="rounded=1;whiteSpace=wrap;html=1;" parent="1" vertex="1">
          <mxGeometry x="408" y="410" width="120" height="60" as="geometry" />
        </mxCell>
        <mxCell id="CBHWCpmul9eefSs7WU4--6" value="A0审核" style="rounded=1;whiteSpace=wrap;html=1;" parent="1" vertex="1">
          <mxGeometry x="408" y="550" width="120" height="60" as="geometry" />
        </mxCell>
        <mxCell id="CBHWCpmul9eefSs7WU4--15" value="" style="edgeStyle=orthogonalEdgeStyle;rounded=0;orthogonalLoop=1;jettySize=auto;html=1;" parent="1" source="CBHWCpmul9eefSs7WU4--12" target="CBHWCpmul9eefSs7WU4--14" edge="1">
          <mxGeometry relative="1" as="geometry" />
        </mxCell>
        <mxCell id="CBHWCpmul9eefSs7WU4--16" value="否" style="edgeLabel;html=1;align=center;verticalAlign=middle;resizable=0;points=[];" parent="CBHWCpmul9eefSs7WU4--15" vertex="1" connectable="0">
          <mxGeometry x="0.044" y="3" relative="1" as="geometry">
            <mxPoint as="offset" />
          </mxGeometry>
        </mxCell>
        <mxCell id="CBHWCpmul9eefSs7WU4--24" value="" style="edgeStyle=orthogonalEdgeStyle;rounded=0;orthogonalLoop=1;jettySize=auto;html=1;" parent="1" source="CBHWCpmul9eefSs7WU4--12" target="CBHWCpmul9eefSs7WU4--23" edge="1">
          <mxGeometry relative="1" as="geometry" />
        </mxCell>
        <mxCell id="CBHWCpmul9eefSs7WU4--30" value="是" style="edgeLabel;html=1;align=center;verticalAlign=middle;resizable=0;points=[];" parent="CBHWCpmul9eefSs7WU4--24" vertex="1" connectable="0">
          <mxGeometry x="-0.1799" y="-3" relative="1" as="geometry">
            <mxPoint as="offset" />
          </mxGeometry>
        </mxCell>
        <mxCell id="CBHWCpmul9eefSs7WU4--12" value="是否有追问？" style="strokeWidth=2;html=1;shape=mxgraph.flowchart.decision;whiteSpace=wrap;" parent="1" vertex="1">
          <mxGeometry x="409" y="840" width="120" height="70" as="geometry" />
        </mxCell>
        <mxCell id="CBHWCpmul9eefSs7WU4--14" value="A0已解决&lt;div&gt;工单状态：已关闭&lt;/div&gt;" style="whiteSpace=wrap;html=1;strokeWidth=2;" parent="1" vertex="1">
          <mxGeometry x="409" y="995" width="120" height="60" as="geometry" />
        </mxCell>
        <mxCell id="CBHWCpmul9eefSs7WU4--19" style="edgeStyle=orthogonalEdgeStyle;rounded=0;orthogonalLoop=1;jettySize=auto;html=1;exitX=0.5;exitY=1;exitDx=0;exitDy=0;exitPerimeter=0;" parent="1" source="CBHWCpmul9eefSs7WU4--17" target="CBHWCpmul9eefSs7WU4--12" edge="1">
          <mxGeometry relative="1" as="geometry" />
        </mxCell>
        <mxCell id="CBHWCpmul9eefSs7WU4--20" value="是" style="edgeLabel;html=1;align=center;verticalAlign=middle;resizable=0;points=[];" parent="CBHWCpmul9eefSs7WU4--19" vertex="1" connectable="0">
          <mxGeometry x="0.0613" y="-2" relative="1" as="geometry">
            <mxPoint as="offset" />
          </mxGeometry>
        </mxCell>
        <mxCell id="CBHWCpmul9eefSs7WU4--21" style="edgeStyle=orthogonalEdgeStyle;rounded=0;orthogonalLoop=1;jettySize=auto;html=1;exitX=1;exitY=0.5;exitDx=0;exitDy=0;exitPerimeter=0;entryX=1;entryY=0.5;entryDx=0;entryDy=0;" parent="1" source="CBHWCpmul9eefSs7WU4--17" target="CBHWCpmul9eefSs7WU4--4" edge="1">
          <mxGeometry relative="1" as="geometry">
            <Array as="points">
              <mxPoint x="638" y="695" />
              <mxPoint x="638" y="440" />
            </Array>
          </mxGeometry>
        </mxCell>
        <mxCell id="CBHWCpmul9eefSs7WU4--22" value="驳回至原A1" style="edgeLabel;html=1;align=center;verticalAlign=middle;resizable=0;points=[];" parent="CBHWCpmul9eefSs7WU4--21" vertex="1" connectable="0">
          <mxGeometry x="0.0159" y="-1" relative="1" as="geometry">
            <mxPoint as="offset" />
          </mxGeometry>
        </mxCell>
        <mxCell id="CBHWCpmul9eefSs7WU4--41" value="否" style="edgeLabel;html=1;align=center;verticalAlign=middle;resizable=0;points=[];" parent="CBHWCpmul9eefSs7WU4--21" vertex="1" connectable="0">
          <mxGeometry x="-0.8341" y="-4" relative="1" as="geometry">
            <mxPoint as="offset" />
          </mxGeometry>
        </mxCell>
        <mxCell id="CBHWCpmul9eefSs7WU4--17" value="是否已解决" style="strokeWidth=2;html=1;shape=mxgraph.flowchart.decision;whiteSpace=wrap;" parent="1" vertex="1">
          <mxGeometry x="408" y="660" width="120" height="70" as="geometry" />
        </mxCell>
        <mxCell id="CBHWCpmul9eefSs7WU4--18" style="edgeStyle=orthogonalEdgeStyle;rounded=0;orthogonalLoop=1;jettySize=auto;html=1;exitX=0.5;exitY=1;exitDx=0;exitDy=0;entryX=0.5;entryY=0;entryDx=0;entryDy=0;entryPerimeter=0;" parent="1" source="CBHWCpmul9eefSs7WU4--6" target="CBHWCpmul9eefSs7WU4--17" edge="1">
          <mxGeometry relative="1" as="geometry" />
        </mxCell>
        <mxCell id="CBHWCpmul9eefSs7WU4--31" style="edgeStyle=orthogonalEdgeStyle;rounded=0;orthogonalLoop=1;jettySize=auto;html=1;exitX=0.5;exitY=1;exitDx=0;exitDy=0;" parent="1" source="CBHWCpmul9eefSs7WU4--23" target="CBHWCpmul9eefSs7WU4--26" edge="1">
          <mxGeometry relative="1" as="geometry" />
        </mxCell>
        <mxCell id="CBHWCpmul9eefSs7WU4--23" value="A0指派至原A1&lt;div&gt;单据状态：追问中&lt;/div&gt;" style="whiteSpace=wrap;html=1;strokeWidth=2;" parent="1" vertex="1">
          <mxGeometry x="229" y="845" width="120" height="60" as="geometry" />
        </mxCell>
        <mxCell id="CBHWCpmul9eefSs7WU4--35" style="edgeStyle=orthogonalEdgeStyle;rounded=0;orthogonalLoop=1;jettySize=auto;html=1;exitX=0.5;exitY=1;exitDx=0;exitDy=0;" parent="1" source="CBHWCpmul9eefSs7WU4--26" target="CBHWCpmul9eefSs7WU4--34" edge="1">
          <mxGeometry relative="1" as="geometry" />
        </mxCell>
        <mxCell id="CBHWCpmul9eefSs7WU4--26" value="A1解决追问&lt;div&gt;单据状态：追问已解决&lt;/div&gt;" style="whiteSpace=wrap;html=1;strokeWidth=2;" parent="1" vertex="1">
          <mxGeometry x="229" y="995" width="120" height="60" as="geometry" />
        </mxCell>
        <mxCell id="CBHWCpmul9eefSs7WU4--37" style="edgeStyle=orthogonalEdgeStyle;rounded=0;orthogonalLoop=1;jettySize=auto;html=1;exitX=0.5;exitY=1;exitDx=0;exitDy=0;" parent="1" source="CBHWCpmul9eefSs7WU4--34" target="CBHWCpmul9eefSs7WU4--36" edge="1">
          <mxGeometry relative="1" as="geometry" />
        </mxCell>
        <mxCell id="CBHWCpmul9eefSs7WU4--34" value="A0审核" style="rounded=1;whiteSpace=wrap;html=1;" parent="1" vertex="1">
          <mxGeometry x="229" y="1130" width="120" height="60" as="geometry" />
        </mxCell>
        <mxCell id="CBHWCpmul9eefSs7WU4--38" style="edgeStyle=orthogonalEdgeStyle;rounded=0;orthogonalLoop=1;jettySize=auto;html=1;exitX=0;exitY=0.5;exitDx=0;exitDy=0;exitPerimeter=0;entryX=0;entryY=0.5;entryDx=0;entryDy=0;" parent="1" source="CBHWCpmul9eefSs7WU4--36" target="CBHWCpmul9eefSs7WU4--23" edge="1">
          <mxGeometry relative="1" as="geometry">
            <Array as="points">
              <mxPoint x="120" y="1285" />
              <mxPoint x="120" y="875" />
            </Array>
          </mxGeometry>
        </mxCell>
        <mxCell id="CBHWCpmul9eefSs7WU4--39" value="驳回至原A1" style="edgeLabel;html=1;align=center;verticalAlign=middle;resizable=0;points=[];" parent="CBHWCpmul9eefSs7WU4--38" vertex="1" connectable="0">
          <mxGeometry x="-0.0491" relative="1" as="geometry">
            <mxPoint as="offset" />
          </mxGeometry>
        </mxCell>
        <mxCell id="CBHWCpmul9eefSs7WU4--42" value="否" style="edgeLabel;html=1;align=center;verticalAlign=middle;resizable=0;points=[];" parent="CBHWCpmul9eefSs7WU4--38" vertex="1" connectable="0">
          <mxGeometry x="-0.805" y="2" relative="1" as="geometry">
            <mxPoint as="offset" />
          </mxGeometry>
        </mxCell>
        <mxCell id="CBHWCpmul9eefSs7WU4--36" value="是否已解决" style="strokeWidth=2;html=1;shape=mxgraph.flowchart.decision;whiteSpace=wrap;" parent="1" vertex="1">
          <mxGeometry x="229" y="1250" width="120" height="70" as="geometry" />
        </mxCell>
        <mxCell id="CBHWCpmul9eefSs7WU4--40" style="edgeStyle=orthogonalEdgeStyle;rounded=0;orthogonalLoop=1;jettySize=auto;html=1;entryX=1;entryY=0.5;entryDx=0;entryDy=0;entryPerimeter=0;" parent="1" source="CBHWCpmul9eefSs7WU4--36" target="CBHWCpmul9eefSs7WU4--12" edge="1">
          <mxGeometry relative="1" as="geometry">
            <Array as="points">
              <mxPoint x="610" y="1285" />
              <mxPoint x="610" y="875" />
            </Array>
          </mxGeometry>
        </mxCell>
        <mxCell id="CBHWCpmul9eefSs7WU4--43" value="是" style="edgeLabel;html=1;align=center;verticalAlign=middle;resizable=0;points=[];" parent="CBHWCpmul9eefSs7WU4--40" vertex="1" connectable="0">
          <mxGeometry x="-0.7029" y="2" relative="1" as="geometry">
            <mxPoint as="offset" />
          </mxGeometry>
        </mxCell>
      </root>
    </mxGraphModel>
  </diagram>
</mxfile>
